<svg width="133" height="18" viewBox="0 0 133 18" fill="none" xmlns="http://www.w3.org/2000/svg">
<path d="M16.7206 11.6401V17.4943H23.4165L23.4165 0.352783L16.7206 0.352783V6.2069L6.68314 6.2069L6.68314 0.352783L0 0.352783L0 17.4943H6.68314L6.68314 11.6401L16.7206 11.6401Z" fill="white"/>
<path d="M34.4845 0.378291L26.5387 0.378291L36.1553 11.6656V17.5198H42.8384V11.6656L47.6467 6.02197L52.455 0.378291L44.5219 0.378291L39.4968 6.52575L34.4845 0.378291Z" fill="white"/>
<path d="M62.2603 8.31133V5.39064L70.4229 5.39064C70.8183 5.39064 71.1627 5.53094 71.4432 5.82428C71.7366 6.10487 71.8769 6.44923 71.8769 6.85736C71.8769 7.25274 71.7366 7.5971 71.4432 7.89044C71.1627 8.17103 70.8183 8.31133 70.4229 8.31133H62.2603ZM55.5772 0.378291V17.5198H62.2603V13.3364L72.0937 13.3364C75.6266 13.3874 78.6238 10.3902 78.5728 6.85736C78.6238 3.31173 75.6266 0.340029 72.0937 0.378291L55.5772 0.378291Z" fill="white"/>
<path d="M83.0087 17.5198L103.071 17.5198V13.1196L89.6918 13.1196V10.9259L103.071 10.9259V6.95939L89.6918 6.95939V4.76569L103.071 4.76569V0.378291L83.0087 0.378291V17.5198Z" fill="white"/>
<path d="M109.241 0.365537V17.507H115.924V13.3237L121.893 13.3237L125.12 17.507H132.237L128.5 12.6987C129.622 12.1758 130.528 11.3851 131.204 10.352C131.892 9.30614 132.237 8.13277 132.237 6.84461C132.288 3.29897 129.291 0.327275 125.758 0.365537L109.241 0.365537ZM124.074 5.37789C124.89 5.37789 125.541 6.02835 125.541 6.84461C125.541 7.23998 125.401 7.58434 125.107 7.87769C124.827 8.15828 124.482 8.29857 124.074 8.29857L115.924 8.29857V5.37789L124.074 5.37789Z" fill="white"/>
</svg>
