<svg width="3409" height="693" viewBox="0 0 3409 693" fill="none" xmlns="http://www.w3.org/2000/svg">
<path d="M211.359 82.7739L394.265 655.113V400.069L211.359 82.7739Z" fill="url(#paint0_linear_252_673)"/>
<path d="M577.165 0L394.26 655.113V400.069L577.165 0Z" fill="url(#paint1_linear_252_673)"/>
<path d="M11.0341 372.278L210.824 82.7737L212.023 84.8547L394.134 654.708L393.729 655.113L210.824 472.077L304.28 692.095H125.369L5.77472 433.898C-3.50005 413.875 -1.49989 390.44 11.0341 372.278Z" fill="url(#paint2_linear_252_673)"/>
<path d="M394.468 654.374L576.635 472.077L483.178 692.095H662.089L783.232 429.319C791.505 411.373 790.781 390.566 781.281 373.238L576.987 0.643394L394.468 654.374Z" fill="url(#paint3_linear_252_673)"/>
<path d="M1085.79 577.574H974V179.935H1125.62L1198.76 344.925L1238.01 447.599H1245.73L1283.2 344.925L1352.76 179.935H1504.39V577.574H1392.6V413.177L1396.76 346.706H1389.04L1366.44 413.177L1306.98 553.834H1171.41L1111.95 413.177L1089.35 346.706H1081.62L1085.79 413.177V577.574Z" fill="url(#paint4_linear_252_673)"/>
<path d="M1651.94 577.574H1540.15V179.935H1651.94V577.574ZM1893.94 577.574H1570.48V477.274H1893.94V577.574ZM1885.02 427.42H1570.48V327.714H1885.02V427.42ZM1893.94 280.235H1570.48V179.935H1893.94V280.235Z" fill="url(#paint5_linear_252_673)"/>
<path d="M2037.5 577.574H1925.72V179.935H2158.21C2193.49 179.935 2223.02 184.683 2246.81 194.179C2270.59 203.675 2288.43 217.523 2300.32 235.723C2312.61 253.528 2318.75 275.487 2318.75 301.6C2318.75 322.57 2314.99 340.771 2307.46 356.202C2300.32 371.237 2288.82 383.502 2272.97 392.998C2257.11 402.098 2236.5 408.231 2211.13 411.396V417.331C2231.74 422.475 2246.41 430.19 2255.13 440.477C2264.25 450.369 2272.57 462.832 2280.1 477.867L2329.46 577.574H2200.43L2152.86 480.241C2148.1 470.35 2143.15 462.634 2137.99 457.095C2132.84 451.556 2126.1 447.797 2117.78 445.819C2109.45 443.445 2097.96 442.258 2083.29 442.258H2037.5V577.574ZM2037.5 280.235V359.169H2157.02C2173.27 359.169 2184.77 356.795 2191.51 352.047C2198.25 347.299 2201.62 336.419 2201.62 319.405C2201.62 303.579 2198.25 293.094 2191.51 287.95C2184.77 282.807 2173.27 280.235 2157.02 280.235H2037.5Z" fill="url(#paint6_linear_252_673)"/>
<path d="M2561.34 583.508C2515.36 583.508 2475.92 575.2 2443.02 558.582C2410.11 541.568 2384.94 517.829 2367.5 487.363C2350.06 456.501 2341.34 420.299 2341.34 378.754C2341.34 337.21 2350.06 301.205 2367.5 270.739C2384.94 239.877 2410.11 216.138 2443.02 199.52C2475.92 182.507 2515.36 174 2561.34 174C2606.14 174 2644.39 180.726 2676.1 194.179C2708.21 207.631 2732.79 227.018 2749.83 252.341C2766.88 277.663 2775.4 308.129 2775.4 343.738V353.828H2650.53V343.738C2650.53 321.186 2644.19 305.161 2631.51 295.666C2618.82 285.774 2596.03 280.828 2563.13 280.828C2536.17 280.828 2515.16 283.598 2500.1 289.137C2485.43 294.281 2475.12 303.974 2469.18 318.218C2463.23 332.066 2460.26 352.245 2460.26 378.754C2460.26 404.868 2463.23 425.046 2469.18 439.29C2475.12 453.534 2485.43 463.426 2500.1 468.965C2515.16 474.108 2536.17 476.68 2563.13 476.68C2596.03 476.68 2618.82 471.932 2631.51 462.436C2644.19 452.545 2650.53 436.323 2650.53 413.77V403.681H2775.4V413.77C2775.4 448.984 2766.88 479.45 2749.83 505.168C2732.79 530.49 2708.21 549.877 2676.1 563.33C2644.39 576.782 2606.14 583.508 2561.34 583.508Z" fill="url(#paint7_linear_252_673)"/>
<path d="M2916.64 577.574H2804.85V179.935H2916.64V577.574Z" fill="url(#paint8_linear_252_673)"/>
<path d="M3249.05 577.574H3088.51L2928.56 179.935H3063.53L3166.4 464.81H3174.13L3274.62 179.935H3409L3249.05 577.574Z" fill="url(#paint9_linear_252_673)"/>
<defs>
<linearGradient id="paint0_linear_252_673" x1="394.845" y1="389.072" x2="240.837" y2="403.413" gradientUnits="userSpaceOnUse">
<stop stop-color="#FEFEFE"/>
<stop offset="1" stop-color="white" stop-opacity="0.8"/>
</linearGradient>
<linearGradient id="paint1_linear_252_673" x1="603.095" y1="364.131" x2="369.277" y2="287.44" gradientUnits="userSpaceOnUse">
<stop stop-color="#FEFEFE"/>
<stop offset="1" stop-color="white" stop-opacity="0.8"/>
</linearGradient>
<linearGradient id="paint2_linear_252_673" x1="431.863" y1="-11.9262" x2="431.864" y2="702.585" gradientUnits="userSpaceOnUse">
<stop stop-color="#FEFEFE"/>
<stop offset="1" stop-color="white" stop-opacity="0.8"/>
</linearGradient>
<linearGradient id="paint3_linear_252_673" x1="431.863" y1="-11.9262" x2="431.864" y2="702.585" gradientUnits="userSpaceOnUse">
<stop stop-color="#FEFEFE"/>
<stop offset="1" stop-color="white" stop-opacity="0.8"/>
</linearGradient>
<linearGradient id="paint4_linear_252_673" x1="2306.88" y1="166.943" x2="2306.88" y2="589.715" gradientUnits="userSpaceOnUse">
<stop stop-color="#FEFEFE"/>
<stop offset="1" stop-color="white" stop-opacity="0.8"/>
</linearGradient>
<linearGradient id="paint5_linear_252_673" x1="2306.88" y1="166.943" x2="2306.88" y2="589.715" gradientUnits="userSpaceOnUse">
<stop stop-color="#FEFEFE"/>
<stop offset="1" stop-color="white" stop-opacity="0.8"/>
</linearGradient>
<linearGradient id="paint6_linear_252_673" x1="2306.88" y1="166.943" x2="2306.88" y2="589.715" gradientUnits="userSpaceOnUse">
<stop stop-color="#FEFEFE"/>
<stop offset="1" stop-color="white" stop-opacity="0.8"/>
</linearGradient>
<linearGradient id="paint7_linear_252_673" x1="2306.88" y1="166.943" x2="2306.88" y2="589.715" gradientUnits="userSpaceOnUse">
<stop stop-color="#FEFEFE"/>
<stop offset="1" stop-color="white" stop-opacity="0.8"/>
</linearGradient>
<linearGradient id="paint8_linear_252_673" x1="2306.88" y1="166.943" x2="2306.88" y2="589.715" gradientUnits="userSpaceOnUse">
<stop stop-color="#FEFEFE"/>
<stop offset="1" stop-color="white" stop-opacity="0.8"/>
</linearGradient>
<linearGradient id="paint9_linear_252_673" x1="2306.88" y1="166.943" x2="2306.88" y2="589.715" gradientUnits="userSpaceOnUse">
<stop stop-color="#FEFEFE"/>
<stop offset="1" stop-color="white" stop-opacity="0.8"/>
</linearGradient>
</defs>
</svg>
